<?xml version="1.0" encoding="utf-8"?>
<!-- Generator: Adobe Illustrator 18.1.1, SVG Export Plug-In . SVG Version: 6.00 Build 0)  -->
<svg version="1.1" id="Camada_1" xmlns="http://www.w3.org/2000/svg" xmlns:xlink="http://www.w3.org/1999/xlink" x="0px" y="0px"
	 viewBox="0 0 255.1 141.7" enable-background="new 0 0 255.1 141.7" xml:space="preserve">
<rect x="-7.1" y="-7.1" fill="#FFFFFF" width="269.3" height="155.9"/>
<g>
	<g>
		<path fill="#93B93A" d="M139.2,79.6c0-1.6-0.9-3.4-3.4-3.4h-4.6v12.1h4.6c2.2,0,3.4-1.3,3.4-3.6c0-1.2-0.5-2.1-1.1-2.7
			C138.8,81.5,139.2,80.6,139.2,79.6z M135.8,86.4h-2.7v-3.4h2.7c1,0,1.5,0.9,1.5,1.7C137.4,86.2,136.6,86.4,135.8,86.4z M135.8,81
			h-2.7v-2.9h2.7c0.5,0,0.9,0.1,1.2,0.3c0.2,0.2,0.3,0.6,0.3,1.1C137.3,80.5,136.8,81,135.8,81z"/>
		<path fill="#93B93A" d="M147.7,83.5c0.9-0.3,1.8-1.2,1.8-3.5c0-3.1-1.7-3.7-3.1-3.7h-5v12.1h1.9v-4.8c0.4,0,1.2,0.1,2.4,0.1
			l2.4,4.6h2.1L147.7,83.5z M143.3,78.1h3.1c0.5,0,1.2,0,1.2,1.8c0,1.8-0.5,1.8-1.2,1.8h-3.1V78.1z"/>
	</g>
	<path fill="#848584" d="M151.9,76.8c1.5-0.2,3.1-0.3,4.4-0.3c2.2,0,3.1,1.5,3.1,3.2c0,2.9-4.8,6.5-5.8,7.2h5.8v0.9H152V87
		c1.6-1.1,6.5-4.8,6.5-7.3c0-1.4-0.7-2.3-2.2-2.3h-4.4V76.8z"/>
	<path fill="#848584" d="M162.9,79.2c0-1.6,1.2-2.4,2.6-2.4h2.3c1.8,0,2.5,1.1,2.5,2.4v6.2c0,1.8-1,2.4-2.5,2.4h-2.3
		c-1.4,0-2.6-0.6-2.6-2.4V79.2z M165.5,86.9h2.3c1.2,0,1.7-0.6,1.7-1.6v-6.2c0-0.9-0.4-1.6-1.7-1.6h-2.3c-1.1,0-1.7,0.6-1.7,1.6v6.2
		C163.8,86.5,164.6,86.9,165.5,86.9z"/>
	<path fill="#848584" d="M173.7,78l2.5-1.3h0.9v11h-0.9V77.7l-2.5,0.9V78z"/>
	<path fill="#848584" d="M181.2,86.9h4.6c1.1,0,1.6-0.7,1.6-1.7v-1.6c0-0.6-0.1-1.7-1.6-1.7h-2.3c-0.7,0-1.4,0.5-1.4,1.4h-0.8
		l0.3-6.6h6.4v0.9h-5.6l-0.2,4.2c0.2-0.2,0.7-0.6,1.4-0.6c0.9-0.1,1.8,0,2.3,0c1.8,0,2.5,1,2.5,2.5v1.6c0,2.1-1.5,2.6-2.5,2.6
		c-1.9,0-2.9,0-4.6-0.3V86.9z"/>
	<g>
		<g>
			<path fill="#858585" stroke="#858585" stroke-width="0.2" stroke-miterlimit="10" d="M59,71.4c0,0.7,0.3,0.7,0.8,0.7h1
				c0,0.2,0,0.4,0,0.6c0,0.1,0,0.4,0,0.6h-2.1c-1,0-1-0.7-1-1.2v-6c0-2.2-0.4-2.3-1.6-2.4c-0.1-0.2-0.1-0.4-0.1-0.5
				c0-0.1,0-0.3,0.1-0.5c1.2,0,1.6-0.3,1.6-2.4v-5.6c0-0.5,0.1-1.2,1-1.2h2.1c0,0.2,0,0.5,0,0.6c0,0.2,0,0.4,0,0.6h-1
				c-0.5,0-0.8,0-0.8,0.7v4.9c0,1.4-0.3,2.3-0.8,2.9c0.6,0.6,0.8,1.3,0.8,2.7V71.4z"/>
		</g>
	</g>
	<g>
		<g>
			<path fill="#858585" stroke="#858585" stroke-width="0.2" stroke-miterlimit="10" d="M196.1,65.9c0-1.4,0.3-2.1,0.8-2.7
				c-0.5-0.6-0.8-1.5-0.8-2.9v-4.9c0-0.7-0.3-0.7-0.8-0.7h-1c0-0.2,0-0.4,0-0.6c0-0.1,0-0.4,0-0.6h2.1c1,0,1,0.7,1,1.2v5.6
				c0,2.2,0.4,2.4,1.6,2.4c0.1,0.2,0.1,0.4,0.1,0.5c0,0.1,0,0.3-0.1,0.5c-1.2,0-1.6,0.2-1.6,2.4v6c0,0.5-0.1,1.2-1,1.2h-2.1
				c0-0.2,0-0.5,0-0.6c0-0.2,0-0.4,0-0.6h1c0.5,0,0.8,0,0.8-0.7V65.9z"/>
		</g>
	</g>
	<path fill="#858585" d="M65.5,56.7h1.3l6.9,9.8l0.9,1.7l-0.2-1.9v-9.7H76v13.5h-1.4l-6.9-9.8l-0.9-1.5l0.2,1.8v9.5h-1.5V56.7z"/>
	<path fill="#858585" d="M87.6,70.4c-2.3,0-3.9-0.7-4.6-2c-0.4-0.8-0.7-1.8-0.8-3.1c0-0.6,0-1.3,0-2s0-1.4,0.1-2
		c0-0.6,0.1-1.2,0.3-1.7c0.1-0.5,0.3-1,0.6-1.4c0.2-0.4,0.6-0.7,1-1c0.8-0.5,2-0.8,3.6-0.8h0.6c2.4,0,4,0.6,4.7,1.8
		c0.4,0.7,0.7,1.8,0.7,3.1c0,0.6,0,1.3,0,2c0,0.7,0,1.4-0.1,2s-0.1,1.2-0.2,1.7c-0.1,0.5-0.3,1-0.5,1.4c-0.2,0.4-0.6,0.8-1,1.1
		c-0.8,0.6-2,0.9-3.6,0.9H87.6z M88.1,69.1c0.7,0,1.3-0.1,1.8-0.2c0.5-0.1,0.8-0.4,1.1-0.7c0.5-0.7,0.8-1.9,0.8-3.8v-1
		c0-0.9,0-1.7-0.1-2.4c-0.1-0.7-0.2-1.3-0.4-1.8c-0.5-1-1.5-1.5-3.1-1.5h-0.8c-1.6,0-2.6,0.5-3.1,1.4c-0.3,0.6-0.4,1.3-0.5,2.1
		c0,0.8,0,1.5,0,2.1v1c0,1.7,0.3,3,0.9,3.7c0.6,0.7,1.5,1,2.8,1H88.1z"/>
	<path fill="#858585" d="M116.8,56.7h8.5V58h-6.8v4.7h5.5V64h-5.5v5h7.1v1.3h-8.8V56.7z"/>
	<g>
		<path fill="#94B93A" d="M140.5,67.9c-1,0.4-2.1,0.5-3.1,0.5c-1.3,0-2.3-0.3-2.7-1c-0.5-0.6-0.7-1.8-0.7-3.5v-0.7
			c0-2.6,0.3-3.7,0.6-4.2c0.2-0.4,0.5-0.6,0.9-0.8c0.9-0.3,2.6-0.4,5,0.3l0.5,0.1l0.7-2.3l-0.5-0.2c-0.2-0.1-0.7-0.2-1.4-0.3
			c-0.7-0.1-1.5-0.2-2.6-0.2c-1.7,0-3.1,0.3-4,1c-0.5,0.3-0.9,0.7-1.1,1.2c-0.3,0.5-0.5,1-0.6,1.6c-0.1,0.6-0.2,1.2-0.3,1.8
			c0,0.6-0.1,1.3-0.1,2.1c0,0.7,0,1.4,0.1,2c0.1,1.3,0.4,2.4,1,3.2c0.9,1.3,2.6,2,5.1,2h0.1c0.6,0,1.2,0,1.9-0.1
			c0.8-0.1,1.4-0.3,1.9-0.5l0.4-0.2l-0.8-2.1L140.5,67.9z"/>
		<path fill="#94B93A" d="M156.6,57.8c-0.8-1.3-2.5-2-5.1-2h-0.6c-1.6,0-2.9,0.3-3.8,0.9c-0.5,0.3-0.8,0.7-1.1,1.1
			c-0.3,0.4-0.5,0.9-0.6,1.5c-0.1,0.5-0.2,1.1-0.3,1.8c0,0.6-0.1,1.3-0.1,2c0,0.7,0,1.4,0.1,2c0.1,1.4,0.4,2.5,0.8,3.3
			c0.8,1.5,2.5,2.2,5.1,2.2h0.6c1.7,0,3-0.3,3.9-1c0.5-0.3,0.8-0.7,1.1-1.2c0.3-0.5,0.5-1,0.6-1.5c0.1-0.5,0.2-1.1,0.3-1.8
			c0-0.6,0.1-1.3,0.1-2c0-0.7,0-1.4,0-2.1C157.3,59.8,157.1,58.7,156.6,57.8z M150.8,58.1h0.8c1.4,0,2.2,0.4,2.6,1.2
			c0.2,0.4,0.3,1,0.4,1.6c0.1,0.7,0.1,1.5,0.1,2.3v1c0,2.2-0.4,3.1-0.7,3.5c-0.2,0.3-0.5,0.5-0.9,0.6c-0.4,0.1-1,0.2-1.7,0.2h-0.6
			c-1.2,0-2-0.3-2.4-0.9c-0.5-0.6-0.8-1.8-0.8-3.4v-1c0-0.6,0-1.3,0-2.1c0-0.7,0.2-1.4,0.4-1.9C148.5,58.5,149.4,58.1,150.8,58.1z"
			/>
		<polygon fill="#94B93A" points="171.5,65.7 164.6,56 162.5,56 162.5,70.5 165.1,70.5 165.1,60.9 171.8,70.5 173,70.5 173,70.6 
			173,70.5 174,70.5 174,56 171.5,56 		"/>
		<polygon fill="#94B93A" points="189.3,58.3 189.3,56 179.6,56 179.6,70.5 182.3,70.5 182.3,64.9 188.4,64.9 188.4,62.6 
			182.3,62.6 182.3,58.3 		"/>
	</g>
	<path fill="#858585" d="M108.4,66.6c-0.2,0.8-0.6,1.4-1.2,1.8c-0.6,0.4-1.5,0.5-2.7,0.5h-3.1v-5.7h-1.7v7h4.5c1.7,0,3-0.2,3.9-0.7
		c0.9-0.5,1.5-1.2,1.8-2.3c0.3-0.9,0.4-2.2,0.4-4h-1.8C108.6,64.8,108.5,65.9,108.4,66.6z"/>
	<path fill="#858585" d="M108.4,60.3c-0.2-0.8-0.6-1.4-1.2-1.8c-0.6-0.4-1.5-0.5-2.7-0.5h-3.1v5.7h-1.7v-7h4.5c1.7,0,3,0.2,3.9,0.7
		c0.9,0.5,1.5,1.2,1.8,2.3c0.3,0.9,0.4,2.2,0.4,4h-1.8C108.6,62.1,108.5,61,108.4,60.3z"/>
</g>
</svg>
