<?xml version="1.0" encoding="UTF-8" standalone="no"?>
<svg width="14px" height="17px" viewBox="0 0 14 17" version="1.1" xmlns="http://www.w3.org/2000/svg" xmlns:xlink="http://www.w3.org/1999/xlink">
    <!-- Generator: Sketch 3.6.1 (26313) - http://www.bohemiancoding.com/sketch -->
    <title>Shape</title>
    <desc>Created with Sketch.</desc>
    <defs></defs>
    <g id="Page-1" stroke="none" stroke-width="1" fill="none" fill-rule="evenodd">
        <g id="Desktop-HD" transform="translate(-149.000000, -58.000000)" fill="#FFFFFF">
            <g id="social" transform="translate(40.000000, 50.000000)">
                <g id="github" transform="translate(100.000000, 0.000000)">
                    <path d="M20.8661757,8.25 C21.1340897,8.85841068 21.3076613,9.8689174 21.0486778,10.6087649 C22.1077395,11.5130231 22.4718277,13.7112702 21.9605013,15.5076502 C21.5922032,16.9695577 19.7839864,18.0450227 17.9028638,18.1833291 C18.1050587,18.6232075 18.4922746,18.7905949 18.5868459,19.4986136 C18.7279015,20.5558331 18.3661031,22.1046814 18.7230928,22.8094944 C18.8943745,23.1472459 19.1735088,23.1561762 19.3617356,23.4446962 C18.9010151,23.9901362 17.7588314,23.3835574 17.6287672,22.8094944 C17.4059635,21.8260078 17.9681249,20.3012028 17.3558155,19.6346302 C17.3988649,20.7071916 17.1020987,22.2139068 17.4013838,23.1722051 C17.5193117,23.5491129 17.8598144,23.6945178 17.766159,24.0343302 C15.624679,24.251865 16.5197865,21.2627069 16.1696664,19.4981557 C15.8465667,19.5212831 15.9885382,19.981999 15.9873933,20.1789253 C15.9782338,21.9015725 16.3400322,24.2649171 14.4829532,24.0343302 C14.4286834,23.6723064 14.7320903,23.5491129 14.8477284,23.2184599 C15.1863992,22.2491703 14.7842992,20.8047388 14.9395519,19.6348592 C14.2308393,20.169079 15.0139725,22.0346123 14.5747767,22.9908497 C14.3217468,23.5413275 13.5063266,23.7810738 12.8878345,23.5349159 C12.9684377,23.1254924 13.3916044,23.1914398 13.5711297,22.8097233 C13.8220987,22.2773354 13.5729616,21.5104677 13.6624952,20.7234495 C12.3506326,20.9851782 11.3330175,20.6854381 10.8349722,19.8615534 C10.6121685,19.4917441 10.5569828,19.0553005 10.2876949,18.7278532 C10.019781,18.3999481 9.59157655,18.3557541 9.46746597,17.911754 C11.0921239,17.5208782 11.1544081,19.5840247 12.6135089,19.6348592 C13.0609482,19.650888 13.2935983,19.5057121 13.7076055,19.4083939 C13.8234726,18.8881421 14.0714648,18.5002431 14.4371559,18.228439 C12.6212945,17.9797623 10.5227391,16.9479294 10.1516771,15.5525311 C9.67401162,14.0549753 9.83956873,11.6760597 10.8812275,10.7901203 C10.5860641,10.0461511 10.6776586,8.82932971 11.0635006,8.25 C12.2265221,8.30220837 12.9317999,8.80940809 13.6624952,9.29348042 C14.5685941,9.03587334 15.5214061,8.90764226 16.7629699,8.97587951 C17.2850587,9.00473151 17.8279853,9.23944018 18.2213838,9.20234476 C18.6072257,9.16616528 19.0324533,8.7331564 19.4070749,8.56782989 C19.8950447,8.35235588 20.307907,8.2701506 20.8661757,8.25" id="Shape"></path>
                </g>
            </g>
        </g>
    </g>
</svg>