<?xml version="1.0" encoding="UTF-8" standalone="no"?>
<svg width="308px" height="231px" viewBox="0 0 308 231" version="1.1" xmlns="http://www.w3.org/2000/svg" xmlns:xlink="http://www.w3.org/1999/xlink">
    <!-- Generator: sketchtool 3.7 (28169) - http://www.bohemiancoding.com/sketch -->
    <title>205FB3D4-EA0F-400D-A6DA-4E3847BE41A0</title>
    <desc>Created with sketchtool.</desc>
    <defs></defs>
    <g id="Page-1" stroke="none" stroke-width="1" fill="none" fill-rule="evenodd">
        <g id="Desktop-HD" transform="translate(-136.000000, -1140.000000)">
            <g id="Sobre" transform="translate(0.000000, 1023.000000)">
                <g id="ilustra" transform="translate(136.000000, 117.000000)">
                    <g id="sombra" transform="translate(3.000000, 2.000000)" fill="#508A39">
                        <path d="M243.329628,181.943521 C246.628932,184.835254 245.699084,178.574521 245.699084,178.574521 C244.180527,177.534623 242.697058,176.203708 241.532311,174.779667 C240.538134,173.566129 239.605362,171.904425 238.284666,171.042047 C238.032223,170.877137 237.685235,170.997424 237.535134,171.237998 C236.482476,172.923953 237.077033,175.583843 237.754438,177.293079 C238.708653,179.698815 241.375387,180.230405 243.329628,181.943521" id="Fill-1"></path>
                        <path d="M230.35698,200.813122 C233.474018,201.419406 236.989701,200.299963 237.668081,196.897981 C238.017992,195.142182 236.920499,193.772465 235.157296,193.617256 C233.349258,193.458167 231.285853,194.409791 229.97003,192.785919 C228.213651,190.619787 230.143524,187.529193 231.386246,185.747202 C233.02079,183.40258 235.808385,177.871329 232.94379,175.603341 C232.760549,175.457833 229.716613,175.347246 229.645461,175.59655 C229.186385,177.212661 228.776043,180.181999 227.545018,181.182125 C226.322765,182.175461 225.290575,183.441383 224.499132,184.807219 C222.73398,187.854161 222.210575,191.536489 223.449397,194.862806 C224.591727,197.933029 227.120056,200.184526 230.35698,200.813122" id="Fill-3"></path>
                        <path d="M154.047933,216.119711 C154.352034,215.537678 154.656135,214.955646 154.960237,214.374583 C154.598629,215.436793 154.280882,216.110011 154.047933,216.119711 M193.394531,210.388676 C180.68798,203.804688 189.255455,190.919923 189.255455,190.919923 C189.255455,190.919923 212.630317,141.798828 212.630317,141.798828 C212.630317,141.798828 194.238034,137.148531 189.255452,144.105763 C183.34692,152.357048 179.45111,162.040133 174.184895,170.713392 C168.216908,180.543926 162.651465,189.902044 158.539275,200.66286 C158.09092,201.836626 156.318946,210.24409 155.036262,214.1408 C154.412465,214.15535 153.787692,214.169901 153.163895,214.184452 C151.760351,213.928358 149.826578,214.263026 148.366503,214.296978 C145.169541,214.371673 141.971604,214.446367 138.773667,214.522031 C132.69749,214.664629 126.622287,214.808197 120.547085,214.951765 C117.349148,215.02743 114.151211,215.103094 110.953275,215.177788 C110.253452,215.195249 109.481503,215.257333 108.677389,215.325236 C105.443389,214.547253 102.338047,214.184452 99.0748063,214.263997 C97.4724266,214.303769 96.1683,215.223381 95.3934266,216.45729 C94.6078316,216.591158 93.8222367,216.732786 93.0395658,216.887024 C88.5258063,216.365135 83.9545405,216.744426 83.0588063,221.215408 C82.5003127,224.006256 84.735262,226.358638 87.5920595,225.727133 C91.1710975,224.934598 94.7462367,224.377787 98.3467177,224.034387 C98.6556924,224.050878 98.9578443,224.069309 99.2609709,224.08774 C100.105047,224.140123 100.491022,224.072219 100.83411,223.933501 C105.332275,224.949149 110.216414,224.506804 114.790604,224.574708 C121.82587,224.679474 128.861135,224.784239 135.895427,224.888035 C142.58273,224.987951 149.35873,225.414775 156.041161,225.184872 C158.773199,225.090777 160.601705,224.404948 161.959439,223.267074 C162.338591,224.413679 163.352262,225.441936 164.490692,225.694151 C165.88449,226.003598 167.277313,226.313046 168.67111,226.622493 C169.962566,226.908659 171.158503,226.522577 171.972363,225.747504 C172.682908,225.885251 173.390528,226.03658 174.114718,226.2141 C175.973439,226.668086 177.718123,225.397314 178.261996,223.805454 C178.807819,223.997525 179.353642,224.195416 179.902389,224.43308 C180.165553,224.538816 180.425794,224.652312 180.687984,224.762898 C181.77573,225.218824 182.772832,224.919077 183.519439,224.25653 C188.509819,225.68348 193.580123,226.699127 198.66992,226.885378 C200.973097,226.969773 202.226541,225.036454 202.176832,223.154548 C205.646705,223.917981 209.14192,224.558217 212.630313,225.083016 C227.291503,227.28698 242.013123,228.100856 256.827338,227.467411 C259.635401,227.347124 260.992161,225.041304 260.908338,222.867411 C261.686135,218.730128 267.680439,212.794364 262.484401,213.727556 C234.181541,218.807733 206.101081,216.972663 193.394531,210.388676 Z" id="Fill-5"></path>
                        <path d="M32.8619215,198.89998 C32.8950608,198.942662 32.9291747,198.985345 32.9632886,199.028027 C32.9330734,199.038698 32.906757,199.055188 32.8775165,199.064889 C32.8716684,199.009596 32.8677696,198.955273 32.8619215,198.89998 M85.0874152,203.946204 C85.3915165,203.609595 85.6576051,203.209933 85.8564405,202.725875 C86.3739975,201.469655 86.9734278,200.231865 87.5923519,199.006686 C91.0904911,195.434944 98.3206937,197.748525 97.8197063,204.277963 C97.5253519,208.111619 101.921175,209.628784 104.839377,208.287199 C108.423289,206.639076 109.319023,202.81803 108.730314,199.226888 C109.74301,199.713856 110.9292,199.982561 111.959441,200.518031 C113.194365,201.161177 114.340592,201.909089 115.425415,202.738486 C114.770428,206.524609 124.045516,206.646836 124.684909,206.308287 C124.641205,208.271678 127.216162,203.575643 127.128441,201.75194 C128.897491,203.312758 131.001833,204.785301 132.496997,206.244264 C137.161833,210.7977 136.30532,212.001035 133.59375,206.476573 C131.91437,203.05228 130.580978,199.067422 127.907421,196.353209 C126.388864,194.811792 126.404248,207.59555 124.684906,208.271678 C123.049387,207.562568 112.432164,208.11841 108.730316,208.271678 C106.520709,208.362863 103.335445,210.871424 101.710648,212.310985 C99.673559,210.587198 101.710648,199.476573 97.8197098,197.357425 C93.928772,195.238277 87.5923539,192.601413 83.5142289,197.601413 C79.4361039,202.601413 79.418106,211.787682 67.1979752,210.007488 C54.9778444,208.227294 25.3256684,177.000003 26.7428582,148.245665 C26.7584532,142.48645 26.6434405,136.728206 26.3422633,130.984512 C26.3062,128.148072 26.1872886,125.192316 25.3256684,122.717706 C24.1774911,119.421461 21.9444911,118.724961 18.954162,117.841242 C13.7454532,116.302735 14.2786051,113.211171 12.5514658,108.897338 C12.4033139,108.527747 12.0699722,108.280383 11.6528076,108.389029 C10.8789089,108.58886 10.2278203,108.957481 9.67809873,109.434748 C7.2988962,107.681859 3.13407342,107.997127 1.95957975,111.689155 C0.68176962,115.707121 -0.372837975,121.631245 1.99076962,125.477512 C4.43137722,129.448916 9.44514937,129.472197 13.4130861,128.203366 C13.6743013,128.357604 13.6343392,128.661231 13.6314152,128.98911 C13.564162,136.018126 13.949162,143.01319 14.7600987,149.967512 C14.5115544,150.29248 14.3234405,150.686323 14.2249975,151.158739 C13.4949595,154.686828 13.7405797,157.766752 15.0183899,161.145452 C15.390719,162.128117 16.0739722,162.848868 16.8780861,163.272782 C17.029162,163.7743 17.2552886,164.183663 17.5418456,164.507661 C16.5778835,165.074173 15.8517443,166.08497 15.6324405,167.629297 C13.5271241,182.489565 11.5738582,198.953333 20.7290608,212.0384 C29.136681,224.054467 45.211162,227.819249 59.2056684,225.626926 C64.941681,224.728655 70.2449342,218.200187 65.4085544,212.92018 C62.7925038,210.063369 58.7251494,210.97619 55.1753519,210.831652 C54.4677316,210.80255 53.7640101,210.760838 53.0612633,210.711365 C53.5554278,210.208877 53.9355544,209.599683 54.1792253,208.940046 C54.2991114,208.66067 54.3936557,208.370623 54.4589595,208.074757 C59.3158076,210.405798 64.6687696,211.695971 70.137719,212.088843 C70.1153013,212.254722 70.1240734,212.435152 70.1503899,212.624313 C70.1650101,212.75236 70.1737823,212.879438 70.1864532,213.007485 C69.8004785,216.012714 67.676254,224.265114 68.1979752,225.626926 C68.7196964,226.988738 72.9243392,223.905079 74.027681,223.03397 C74.1904532,222.988377 74.3444532,222.920473 74.4887063,222.836079 C75.7402,224.084539 78.318238,223.667415 78.8289722,221.720516 C79.8124278,221.845653 80.8397443,221.6206 81.5142253,220.865898 C84.7959848,217.200061 84.4831114,213.323723 84.5172253,209.219421 C84.6410101,208.924525 84.7326304,208.612167 84.7589468,208.271678 C84.8690861,206.830177 84.9782506,205.387705 85.0874152,203.946204 Z" id="Fill-7"></path>
                        <path d="M84.7410127,2.52473181 C80.1794937,1.77778972 75.6871772,1.63325157 71.3254684,2.07947672 C70.3751519,1.30634315 69.0797975,0.86787844 67.4267342,1.00271604 C45.3969367,2.78858668 26.7317468,17.6876563 19.0795063,37.5281845 C17.5736203,38.7223218 16.4390886,40.5052822 16.2158861,42.3008534 C14.2704177,57.9352245 13.6251772,73.6801818 14.3405949,89.4173787 C14.3386456,89.9091964 14.3990759,90.3593018 14.5023924,90.7773954 C14.5296835,92.5525954 15.3698608,93.8311275 16.5424051,94.6411231 C16.345519,97.1681155 16.1340127,99.6941379 15.9117848,102.22016 C15.6057342,105.694896 14.0618355,110.89936 15.9117848,108.125974 C31.5067215,108.886497 29.3388676,90.9044696 30.8224937,67.631891 C31.7272743,53.439246 30.3810749,38.7508678 41.0391266,28.3320662 C71.3254694,-1.27441416 109.87305,10.5000001 123.565656,30.4613334 C137.258262,50.4226667 132.528846,67.6803909 132.799808,81.5143405 C132.946985,89.0555455 135.159443,89.0274167 135.208177,81.5143433 C135.478165,40.2404573 121.742924,8.58175316 84.7410127,2.52473181 Z" id="Fill-9"></path>
                    </g>
                    <g id="luz" transform="translate(44.000000, 17.000000)" fill="#82D061">
                        <path d="M260.945312,127.523438 L74.9765625,0.671875 C74.9765625,0.671875 90.9882812,13.8398437 90.9882812,27.3867188 C90.9882812,40.9335938 90.8945312,124.304688 90.8945312,124.304688 L84.9257812,127.429687 L58.3046875,126.957031 L57.9257812,170.0625 L87.4804688,170.914063 C87.4804688,170.914063 98.9453125,175.460938 98.9453125,179.535156 C98.9453125,183.609375 102.925781,189.578125 102.925781,189.578125 L96.9570312,197.722656 L89.9453125,190.902344 L82.2734375,194.976562 L73.5546875,192.988281 L71.9414062,187.003906 L66.4472656,194.0625 L59.3886719,194.488281 L55.9785156,186.009766 L50.9570312,183.167969 L46.7890625,187.478516 L46.6464844,197.615234 L111.208984,200.503906 L147.966797,126.136719 L260.945312,127.523438 Z" id="Path-37"></path>
                        <path d="M79.0624988,8.20703166 C70.5839884,2.42968793 0.617187481,-18.1757795 0.617187498,62.5859385 C0.617187514,143.347657 -2.65429677,157.236326 32.4941406,188.451172 C42.5028225,197.339745 31.4980486,187.789061 35.9511736,182.38867 C40.4042986,176.988279 36.9146832,180.850884 40.4042969,176.988281 C45.2832014,171.587892 49.4511719,171.777344 49.4511719,171.777344 L56.8886719,171.966797 L56.9824219,127.298828 L92.4628906,125.640625 L91.7050781,68.4667969 C91.7050781,68.4667969 94.640628,48.95117 88.671878,25.9296876 C82.703128,2.90820508 87.5410093,13.9843754 79.0624988,8.20703166 Z" id="Path-38"></path>
                    </g>
                    <g id="traço">
                        <path d="M5.69010506,119.051811 C6.27686456,114.95139 9.46797848,112.092639 13.9437253,111.986903 C19.217738,111.861766 24.4966241,111.988843 29.7725861,111.948101 C39.4648392,111.873407 46.1755354,105.836756 47.0381304,96.2079937 C47.3324848,92.9253287 47.0849152,89.594161 47.0849152,85.6489486 C51.5704089,89.363288 56.3278392,89.9443507 61.3893709,89.9239796 C84.5254342,89.8289142 107.661497,89.8997282 130.797561,89.8454051 C132.496434,89.8405549 133.117308,90.0782182 133.105611,92.008627 C133.008143,107.601286 133.00327,123.194915 133.10951,138.787573 C133.12413,140.786856 132.411637,140.936244 130.767346,140.926544 C120.215422,140.86252 109.661548,140.932364 99.1086494,140.85379 C97.4351177,140.841179 96.9146367,141.21077 96.9419278,142.952018 C97.049143,149.89955 96.9399785,156.849021 97.0218519,163.795583 C97.0393962,165.33894 96.6885101,165.837548 95.0432443,165.833668 C70.5270291,165.778374 46.0108139,165.776434 21.4955734,165.835608 C19.7469911,165.839488 19.3668646,165.316628 19.3775861,163.664625 C19.448738,152.677786 19.3707633,141.689007 19.4584848,130.702168 C19.4731051,128.900776 19.0442443,128.275091 17.1816241,128.403138 C15.1757253,128.540886 13.1142696,128.682514 11.1454089,128.024817 C7.43088987,126.782177 5.12966203,122.970832 5.69010506,119.051811 L5.69010506,119.051811 Z M19.3697886,173.499039 C19.3424975,171.705408 19.7664848,171.229112 21.6105861,171.243662 C33.789257,171.335818 45.9698772,171.291195 58.1495228,171.291195 C70.4100671,171.291195 82.6706114,171.330967 94.9311557,171.246573 C96.679738,171.233962 97.0852063,171.716079 97.0277,173.384573 C96.895143,177.178457 96.9487506,180.980101 97.0082063,184.776895 C97.0267253,185.944841 96.8191177,186.379425 95.4613835,186.45412 C84.1375101,187.073014 76.9716367,194.09136 76.0583582,205.408988 C75.8877886,207.520797 74.8672949,208.475331 72.8233835,208.477271 C64.1350544,208.482121 55.4447759,208.587857 46.7593709,208.441379 C40.6773456,208.339523 36.1255734,203.518351 36.0719658,197.484611 C36.0368772,193.605363 36.0495481,189.726114 36.0719658,185.847835 C36.0826873,183.899966 35.4169785,182.38183 33.2678013,182.362429 C31.075738,182.342058 30.4616873,183.930037 30.459738,185.839105 C30.4558392,189.313841 30.4392696,192.788577 30.4607127,196.263312 C30.5279658,207.186128 37.4686873,214.036654 48.480662,214.054115 C54.3268139,214.062845 60.1729658,214.096797 66.0191177,214.025013 C67.3700291,214.007552 67.8359278,214.339311 67.7764722,215.74104 C67.6634089,218.40287 67.7111684,221.073431 67.7608772,223.739141 C67.7793962,224.741207 67.5269532,225.180642 66.4128899,225.15057 C58.8707886,224.946859 51.311143,225.550233 43.7817127,224.780009 C30.7082823,223.444244 19.8639532,211.986929 19.528662,198.950364 C19.3103329,190.471116 19.4964975,181.982168 19.3697886,173.499039 L19.3697886,173.499039 Z M73.1615987,223.707129 C73.2405481,220.8833 73.1986367,218.056561 73.1781684,215.231761 C73.1732949,214.50422 73.3370418,214.178282 74.1684468,213.935768 C79.7719025,212.301226 81.0224215,210.710337 81.649143,204.766812 C82.5429278,196.288534 89.6522696,190.826156 97.9945861,192.208484 C104.314434,193.256143 109.452966,199.348086 109.266801,205.489502 C109.218067,207.094943 108.557232,208.139692 106.978244,208.414217 C105.633181,208.64897 104.571751,208.051417 104.040548,206.794226 C103.798827,206.222864 103.821244,205.539945 103.731573,204.906499 C103.095105,200.385075 99.5111937,197.354624 95.0169278,197.539904 C90.6893329,197.718394 87.4104975,201.046652 87.1911937,205.542855 C87.1200418,206.992117 87.1794975,208.448169 87.1794975,209.900341 L87.1570797,209.900341 C87.1570797,211.030455 87.1590291,212.160568 87.1570797,213.290682 C87.1395354,220.52438 81.9785861,225.434796 74.7649532,225.155421 C73.6947506,225.113708 73.1274848,224.96141 73.1615987,223.707129 L73.1615987,223.707129 Z M92.6679405,206.612826 C92.6123835,204.675626 93.2449532,203.14585 95.352219,203.032354 C97.3512949,202.925648 98.1661304,204.38364 98.3055101,206.170481 C98.6164342,210.138004 100.833839,212.5418 104.425548,214.057025 C101.1087,214.057025 97.7879532,213.96584 94.4759785,214.096797 C92.8901684,214.158881 92.5597506,213.590429 92.6503962,212.167359 C92.7683329,210.322315 92.7205734,208.46369 92.6679405,206.612826 L92.6679405,206.612826 Z M88.5937633,225.132139 C89.4066494,223.850697 90.2448772,222.926235 90.6269532,221.843654 C91.3267759,219.856982 92.5227127,219.402996 94.5958646,219.412697 C114.969675,219.510673 135.343485,219.444709 155.71632,219.517463 C157.529232,219.524253 158.388903,218.958711 159.164751,217.351331 C162.38608,210.678325 165.770181,204.084863 169.103599,197.46618 C177.365991,181.063526 185.630333,164.661841 193.903447,148.265007 C194.314763,147.450161 194.451219,146.35885 195.788485,146.385041 C197.884054,146.427724 199.980599,146.396682 202.31789,146.396682 C201.88513,147.361887 201.590776,148.091368 201.238915,148.791747 C188.745422,173.626117 176.231459,198.448846 163.7867,223.306496 C163.050814,224.775159 162.206738,225.172882 160.628725,225.169001 C137.332814,225.115648 114.037877,225.132139 90.7419658,225.132139 L88.5937633,225.132139 Z M169.310232,224.757698 C169.428168,224.458921 169.523687,224.151414 169.665991,223.867188 C182.380738,198.591444 195.112054,173.32443 207.780991,148.026374 C208.498358,146.592633 209.412611,146.36564 210.835649,146.36758 C239.171649,146.402502 267.507649,146.393772 295.843649,146.393772 L298.066903,146.393772 C298.066903,146.865219 298.094194,146.958344 298.063004,147.021397 C285.211801,172.607559 272.344029,198.184991 259.541561,223.795404 C258.873903,225.133109 257.97232,225.14087 256.813422,225.1399 C228.151877,225.130199 199.491308,225.134079 170.830738,225.115648 C170.335599,225.114678 169.69913,225.440617 169.310232,224.757698 L169.310232,224.757698 Z M140.013194,208.446229 C137.86889,208.46466 137.124232,207.093003 136.947814,205.156774 C136.602776,201.385201 134.520852,198.962004 130.927194,197.803759 C130.24589,197.583557 129.597725,197.482671 129.163991,196.722148 C128.301396,195.207893 127.27213,193.788703 126.180485,192.13282 C135.124181,191.414979 141.760801,196.522317 142.517156,204.506837 C142.739384,206.849519 141.794915,208.429738 140.013194,208.446229 L140.013194,208.446229 Z M131.391143,206.767064 C132.506181,210.521176 134.48089,212.858038 137.762649,213.996882 L125.139523,213.996882 C128.437852,212.512698 130.687422,210.606541 131.391143,206.767064 L131.391143,206.767064 Z M114.80008,206.915483 C115.925839,210.682205 117.996067,213.06951 122.137497,213.945469 L108.371067,213.945469 C111.983244,212.569931 114.006687,210.468793 114.80008,206.915483 L114.80008,206.915483 Z M125.88808,205.175205 C125.926092,207.078452 125.223346,208.403547 123.200877,208.432648 C121.348004,208.45884 120.517573,207.260822 120.370396,205.472041 C120.042903,201.509368 117.958054,198.914472 114.1217,197.749436 C113.504725,197.562216 112.949156,197.436108 112.560257,196.770651 C111.675244,195.260276 110.653776,193.829445 109.554333,192.163861 C118.582827,191.240369 125.723358,197.011225 125.88808,205.175205 L125.88808,205.175205 Z M133.091966,82.0801175 C133.150447,83.8853892 132.696244,84.3675064 130.846295,84.3539256 C118.745599,84.2627405 106.643928,84.307363 94.542257,84.307363 C83.0098013,84.307363 71.4675987,84.0299274 59.9478139,84.4053385 C52.3988899,84.6517324 46.4835354,79.4881314 47.1404722,71.5298029 C47.4523709,67.7572603 47.2379405,63.9352449 47.1677633,60.1374809 C47.1336494,58.3128081 46.2564342,56.9333903 44.2378646,56.9964439 C42.3635481,57.0556172 41.6374089,58.4069034 41.5184975,60.12196 C41.4795101,60.6855618 41.5058266,61.2530438 41.5058266,61.8185857 C41.5058266,72.5697015 41.2319405,83.3295479 41.5974468,94.067083 C41.8615861,101.81685 35.7785861,107.046415 29.2599025,106.414909 C26.6857633,106.165605 24.0589911,106.25485 21.4702316,106.414909 C19.7177506,106.523555 19.3658899,105.938612 19.374662,104.278849 C19.4458139,90.5380242 19.4194975,76.7962297 19.4117,63.0554054 C19.4097506,57.9470975 19.9487506,52.9076635 21.2791937,47.9652349 C28.9324089,19.5339027 56.1767633,1.97397306 85.6092823,6.49539787 C110.023156,10.2465993 130.089941,31.2123908 132.627042,55.6791097 C133.538371,64.4629547 132.806384,73.2826917 133.091966,82.0801175 L133.091966,82.0801175 Z M-9.74683544e-05,120.353624 C0.0369405063,127.121696 4.90645949,132.769354 11.9202823,133.839324 C13.6269532,134.100269 13.9271557,134.64544 13.923257,136.211108 C13.8686747,156.499801 13.8735481,176.788495 13.8910924,197.077188 C13.904738,213.07824 24.3864848,226.159427 40.0496494,229.769971 C42.2670544,230.281189 44.5107759,230.555715 46.7973835,230.554745 C117.862535,230.545044 188.926713,230.545044 259.99089,230.557655 C261.318409,230.557655 262.335978,230.559595 263.10208,229.026909 C277.53032,200.188154 292.035561,171.38723 306.521308,142.577577 C306.731839,142.158513 306.899485,141.719079 307.259143,140.893562 L304.492991,140.893562 C267.620713,140.893562 230.748434,140.911023 193.875181,140.844089 C191.970649,140.840209 191.039827,141.406721 190.201599,143.085886 C178.71008,166.100433 167.122067,189.067447 155.63932,212.086844 C154.865422,213.637962 154.02427,214.158881 152.345865,214.093887 C148.977358,213.96487 145.60008,214.056055 142.155548,213.892116 C144.732611,212.779463 146.714143,211.146861 147.644966,208.494732 C148.57189,205.852303 148.127434,203.208904 147.407143,200.629528 C145.038662,192.13767 137.553092,186.503592 128.45832,186.423078 C120.500029,186.351294 112.539789,186.368755 104.580523,186.441509 C103.046371,186.45509 102.541485,186.122361 102.552206,184.485879 C102.628232,172.523164 102.637978,160.55948 102.546358,148.596766 C102.532713,146.71874 103.119472,146.340419 104.8817,146.354 C115.358573,146.433544 125.836422,146.337509 136.31232,146.442275 C138.284105,146.461676 138.703219,145.876733 138.69932,144.011318 C138.63889,117.418239 138.73051,90.8241903 138.636941,64.2311116 C138.551168,39.625675 128.184434,20.5068675 106.663422,8.20075398 C68.9519405,-13.3625912 20.606662,10.4959033 14.542181,53.3490383 C14.0987,56.4774646 13.8979152,59.6136514 13.8940165,62.7634189 C13.8784215,76.5857279 13.8599025,90.4080368 13.9252063,104.229376 C13.9330038,105.799894 13.6172063,106.359616 11.924181,106.630261 C4.75440886,107.776866 -0.037135443,113.419674 -9.74683544e-05,120.353624 L-9.74683544e-05,120.353624 Z" id="Fill-11" fill="#285C26"></path>
                        <path d="M115.027084,118.897087 C113.289223,118.94753 112.336957,119.985489 112.338906,121.624881 C112.34183,123.143017 113.249261,124.222687 114.889653,124.303202 C116.665527,124.389537 117.710387,123.265244 117.766919,121.688905 C117.823451,120.107716 116.848767,118.991183 115.027084,118.897087" id="Fill-14" fill="#285C26"></path>
                        <path d="M102.513901,121.613822 C102.315066,119.889065 101.450522,118.860807 99.6853696,118.929681 C97.9289899,118.998555 96.9981671,120.128669 97.069319,121.759331 C97.1355975,123.282316 98.1443949,124.299904 99.7604203,124.293113 C101.492433,124.286323 102.355028,123.235754 102.513901,121.613822" id="Fill-16" fill="#285C26"></path>
                        <path d="M242.687625,179.177546 C241.937119,178.168689 241.362056,177.077377 241.199284,175.809516 C241.048208,174.63575 241.340613,173.57063 242.002423,172.595725 C242.065777,172.503569 242.129132,172.489989 242.232448,172.489989 C243.72079,172.492899 244.889435,173.137985 245.810511,174.265189 C246.607803,175.241064 247.058106,176.385728 247.370005,177.588596 C247.900233,179.629591 248.008423,181.711328 247.93922,183.807616 C247.938246,183.840598 247.928499,183.87261 247.915828,183.943424 C245.958663,182.550426 244.111638,181.092433 242.687625,179.177546 M241.552119,193.777838 C241.310397,195.873156 240.476068,197.692979 238.948739,199.163582 C237.201132,200.845657 235.106537,201.663413 232.668853,201.380157 C230.359828,201.111452 228.569334,199.937685 227.308094,198.002426 C226.065372,196.095299 225.695967,194.001921 226.094613,191.770795 C226.457195,189.748231 227.455271,188.074887 228.986499,186.725541 C230.307195,185.563415 231.172714,184.138405 231.624967,182.460211 C231.876435,181.527988 232.125954,180.602556 232.690296,179.79547 C233.493435,178.648866 234.522701,177.8379 235.94379,177.603147 C236.133853,177.571135 236.329765,177.569195 236.54517,177.551734 C236.498385,177.760296 236.441853,177.930055 236.423334,178.103695 C236.382397,178.481046 236.619246,178.811835 236.978904,178.90593 C237.327841,178.998085 237.741106,178.800194 237.886334,178.464555 C237.92922,178.36464 237.967233,178.257934 237.985752,178.151228 C238.024739,177.921325 238.121233,177.935876 238.293752,178.039671 C239.39417,178.695428 240.00822,179.695555 240.33279,180.893572 C240.659309,182.09644 240.555018,183.292517 240.288929,184.498295 C239.9166,186.18522 241.728537,192.250972 241.552119,193.777838 M238.700195,176.4158 C238.938018,175.912341 239.209954,175.426344 239.504309,174.952957 C239.508208,174.912215 239.523803,174.860802 239.570587,174.882143 C239.638815,174.912215 239.600803,174.973329 239.584233,175.023771 C239.550119,175.847348 239.712891,176.640853 239.988727,177.4751 C239.559866,177.12491 239.160246,176.833893 238.706043,176.626302 C238.57641,176.568098 238.66998,176.479823 238.700195,176.4158 M249.262841,185.28889 C249.390524,183.645617 249.40222,182.002345 249.245296,180.361012 C249.072777,178.55574 248.730663,176.789271 247.965537,175.128537 C247.306651,173.698677 246.378752,172.498719 244.963511,171.726556 C244.496638,171.471431 243.995651,171.299732 243.448853,171.148403 C243.886486,170.91365 244.311448,170.756501 244.742258,170.610023 C245.233499,170.443173 245.455727,170.03769 245.307575,169.607956 C245.150651,169.152031 244.740309,168.9716 244.240296,169.126809 C242.572613,169.642878 241.160296,170.56152 239.951689,171.80319 C238.772322,173.016728 237.879511,174.420397 237.185537,175.954054 C237.120233,176.098592 237.055904,176.160675 236.883385,176.134484 C236.607549,176.091802 236.324891,176.101502 236.046132,176.129634 C233.844322,176.356627 232.297499,177.558524 231.168815,179.380287 C230.626891,180.256246 230.371524,181.236002 230.113233,182.218667 C229.76917,183.525331 229.103461,184.629253 228.052752,185.513943 C225.978625,187.261011 224.797309,189.501837 224.489309,192.185009 C224.191056,194.775055 224.800233,197.142958 226.324638,199.270288 C228.588828,202.430726 232.707841,203.786862 236.372651,202.466618 C240.007246,201.157044 242.134005,198.486484 242.93617,194.765354 C243.377701,192.716599 243.124284,190.710525 242.260714,188.802428 C241.67103,187.496734 241.554068,186.155149 241.809435,184.769911 C241.980005,183.846419 242.150575,182.926807 242.0726,181.981974 C242.038486,181.574551 241.966359,181.172948 241.910803,180.761645 C242.114511,180.956626 242.293853,181.164217 242.479043,181.366959 C244.127233,183.15962 246.047359,184.618582 248.107841,185.904875 C248.653663,186.245364 249.212157,185.939797 249.262841,185.28889" id="Fill-18" fill="#285C26"></path>
                        <path d="M242.687625,179.177546 C241.937119,178.168689 241.362056,177.077377 241.199284,175.809516 C241.048208,174.63575 241.340613,173.57063 242.002423,172.595725 C242.065777,172.503569 242.129132,172.489989 242.232448,172.489989 C243.72079,172.492899 244.889435,173.137985 245.810511,174.265189 C246.607803,175.241064 247.058106,176.385728 247.370005,177.588596 C247.900233,179.629591 248.008423,181.711328 247.93922,183.807616 C247.938246,183.840598 247.928499,183.87261 247.915828,183.943424 C245.958663,182.550426 244.111638,181.092433 242.687625,179.177546 L242.687625,179.177546 Z M241.552119,193.777838 C241.310397,195.873156 240.476068,197.692979 238.948739,199.163582 C237.201132,200.845657 235.106537,201.663413 232.668853,201.380157 C230.359828,201.111452 228.569334,199.937685 227.308094,198.002426 C226.065372,196.095299 225.695967,194.001921 226.094613,191.770795 C226.457195,189.748231 227.455271,188.074887 228.986499,186.725541 C230.307195,185.563415 231.172714,184.138405 231.624967,182.460211 C231.876435,181.527988 232.125954,180.602556 232.690296,179.79547 C233.493435,178.648866 234.522701,177.8379 235.94379,177.603147 C236.133853,177.571135 236.329765,177.569195 236.54517,177.551734 C236.498385,177.760296 236.441853,177.930055 236.423334,178.103695 C236.382397,178.481046 236.619246,178.811835 236.978904,178.90593 C237.327841,178.998085 237.741106,178.800194 237.886334,178.464555 C237.92922,178.36464 237.967233,178.257934 237.985752,178.151228 C238.024739,177.921325 238.121233,177.935876 238.293752,178.039671 C239.39417,178.695428 240.00822,179.695555 240.33279,180.893572 C240.659309,182.09644 240.555018,183.292517 240.288929,184.498295 C239.9166,186.18522 241.728537,192.250972 241.552119,193.777838 L241.552119,193.777838 Z M238.700195,176.4158 C238.938018,175.912341 239.209954,175.426344 239.504309,174.952957 C239.508208,174.912215 239.523803,174.860802 239.570587,174.882143 C239.638815,174.912215 239.600803,174.973329 239.584233,175.023771 C239.550119,175.847348 239.712891,176.640853 239.988727,177.4751 C239.559866,177.12491 239.160246,176.833893 238.706043,176.626302 C238.57641,176.568098 238.66998,176.479823 238.700195,176.4158 L238.700195,176.4158 Z M249.262841,185.28889 C249.390524,183.645617 249.40222,182.002345 249.245296,180.361012 C249.072777,178.55574 248.730663,176.789271 247.965537,175.128537 C247.306651,173.698677 246.378752,172.498719 244.963511,171.726556 C244.496638,171.471431 243.995651,171.299732 243.448853,171.148403 C243.886486,170.91365 244.311448,170.756501 244.742258,170.610023 C245.233499,170.443173 245.455727,170.03769 245.307575,169.607956 C245.150651,169.152031 244.740309,168.9716 244.240296,169.126809 C242.572613,169.642878 241.160296,170.56152 239.951689,171.80319 C238.772322,173.016728 237.879511,174.420397 237.185537,175.954054 C237.120233,176.098592 237.055904,176.160675 236.883385,176.134484 C236.607549,176.091802 236.324891,176.101502 236.046132,176.129634 C233.844322,176.356627 232.297499,177.558524 231.168815,179.380287 C230.626891,180.256246 230.371524,181.236002 230.113233,182.218667 C229.76917,183.525331 229.103461,184.629253 228.052752,185.513943 C225.978625,187.261011 224.797309,189.501837 224.489309,192.185009 C224.191056,194.775055 224.800233,197.142958 226.324638,199.270288 C228.588828,202.430726 232.707841,203.786862 236.372651,202.466618 C240.007246,201.157044 242.134005,198.486484 242.93617,194.765354 C243.377701,192.716599 243.124284,190.710525 242.260714,188.802428 C241.67103,187.496734 241.554068,186.155149 241.809435,184.769911 C241.980005,183.846419 242.150575,182.926807 242.0726,181.981974 C242.038486,181.574551 241.966359,181.172948 241.910803,180.761645 C242.114511,180.956626 242.293853,181.164217 242.479043,181.366959 C244.127233,183.15962 246.047359,184.618582 248.107841,185.904875 C248.653663,186.245364 249.212157,185.939797 249.262841,185.28889 L249.262841,185.28889 Z" id="Stroke-20" stroke="#285D26" stroke-width="3"></path>
                        <path d="M254.399654,105.731789 L247.069942,105.731789 C247.025145,105.61328 247.114739,105.565519 247.162238,105.506599 C250.319638,101.594333 253.479853,97.6842998 256.634777,93.7700256 C256.787289,93.5807675 256.944304,93.4986366 257.197103,93.4999756 C259.316856,93.5111347 261.43661,93.5063363 263.556363,93.5063363 L263.930835,93.5063363 C261.35118,96.5760905 258.813959,99.5954056 256.235093,102.664155 L263.654849,102.664155 C258.34134,107.622251 253.086584,112.525778 247.831717,117.429194 C247.817422,117.419374 247.803015,117.409666 247.788608,117.399846 C249.982648,113.52753 252.176688,109.655214 254.399654,105.731789" id="Fill-1" fill="#285D26"></path>
                    </g>
                </g>
            </g>
        </g>
    </g>
</svg>