<?xml version="1.0" encoding="UTF-8" standalone="no"?>
<svg width="222px" height="259px" viewBox="0 0 222 259" version="1.1" xmlns="http://www.w3.org/2000/svg" xmlns:xlink="http://www.w3.org/1999/xlink">
    <!-- Generator: Sketch 3.7 (28169) - http://www.bohemiancoding.com/sketch -->
    <title>Group 79</title>
    <desc>Created with Sketch.</desc>
    <defs>
        <polygon id="path-1" points="0 258.133779 221.983523 258.133779 221.983523 0.826374582 0 0.826374582"></polygon>
    </defs>
    <g id="Page-1" stroke="none" stroke-width="1" fill="none" fill-rule="evenodd">
        <g id="Desktop-HD" transform="translate(-609.000000, -178.000000)">
            <g id="Home" transform="translate(40.000000, 40.000000)">
                <g id="translate" transform="translate(569.000000, 138.000000)">
                    <g id="Group-79" transform="translate(0.000000, 0.039846)">
                        <polygon id="Fill-1" fill="#72BD53" points="110.797685 0.826461204 -0.00026015625 65.6310331 -0.00026015625 193.349217 111.526123 258.133866 221.983263 194.433725 221.983263 65.383294"></polygon>
                        <path d="M11.3777602,129.446987 C11.3777602,112.454335 11.3951039,95.4608167 11.3664867,78.4681645 C11.3578148,73.8321512 13.2517523,70.4010508 17.2997836,68.0709171 C46.7928305,51.0895258 76.2815414,34.1012047 105.739034,17.0609104 C109.984784,14.6051746 113.978182,14.66581 118.198784,17.1068201 C147.604245,34.114198 177.035721,51.0765324 206.477604,68.0215425 C210.596745,70.3923886 212.486346,73.8702649 212.482877,78.5729773 C212.458596,112.497646 212.459463,146.422315 212.48201,180.346984 C212.485479,185.050563 210.593276,188.528439 206.472401,190.900151 C177.028784,207.846027 147.594705,224.810961 118.184909,241.816606 C113.894932,244.297462 109.825221,244.235094 105.556924,241.766365 C76.200893,224.789305 46.8223148,207.852091 17.4307289,190.936532 C13.2508852,188.531037 11.3456742,185.021977 11.3595492,180.241305 C11.4063773,163.310155 11.3777602,146.378138 11.3777602,129.446987 L11.3777602,129.446987 Z" id="Fill-2" fill="#FEFEFE"></path>
                        <polygon id="Fill-4" fill="#706F6F" points="102.638925 129.987769 112.885612 119.024013 124.642941 119.024013 133.906237 129.987769 144.238777 130.985655 134.619066 140.992237 123.438417 140.992237 113.953987 130.008558"></polygon>
                        <polygon id="Fill-6" fill="#706F6F" points="124.748737 151.696906 134.995425 140.733151 146.752753 140.733151 156.01605 151.696906 166.348589 152.694793 156.728878 162.701375 145.54823 162.701375 136.0638 151.717696"></polygon>
                        <polygon id="Fill-8" fill="#706F6F" points="144.479681 130.964866 154.726369 120.00111 166.483697 120.00111 175.746994 130.964866 186.079533 131.962752 176.459822 141.969334 165.279173 141.969334 155.794744 130.985655"></polygon>
                        <polygon id="Fill-10" fill="#706F6F" points="166.348329 152.93283 176.595016 141.969074 188.352345 141.969074 197.615641 152.93283 207.94818 153.930716 198.32847 163.937298 187.147821 163.937298 177.663391 152.953619"></polygon>
                        <path d="M209.25798,185.646609 L209.521605,185.646609 C212.038184,180.189418 213.478582,174.283525 214.253848,168.166275 L210.462504,163.678385 L198.704309,163.678385 L188.458488,174.642141 L199.773551,174.66293 L209.25798,185.646609 Z" id="Fill-12" fill="#706F6F"></path>
                        <path d="M214.936498,146.690497 L208.188912,153.909581 L215.055302,153.922574 C215.058771,151.511015 215.011076,149.095992 214.936498,146.690497" id="Fill-14" fill="#706F6F"></path>
                        <path d="M206.879112,143.037124 L214.804338,143.037124 C214.603151,138.019974 214.336057,133.075586 214.215518,128.326964 L208.083635,121.0689 L196.32544,121.0689 L186.07962,132.032656 L197.394682,132.053445 L206.879112,143.037124 Z" id="Fill-16" fill="#706F6F"></path>
                        <polygon id="Fill-18" fill="#706F6F" points="105.406727 172.95968 115.653415 161.995924 127.410743 161.995924 136.67404 172.95968 147.006579 173.957567 137.386868 183.964148 126.20622 183.964148 116.72179 172.98047"></polygon>
                        <polygon id="Fill-20" fill="#706F6F" points="146.058049 196.034155 156.304737 185.070399 168.062065 185.070399 177.325362 196.034155 187.657901 197.032041 178.03819 207.038623 166.857541 207.038623 157.373112 196.054944"></polygon>
                        <polygon id="Fill-22" fill="#706F6F" points="104.81201 195.4809 115.058698 184.517144 126.816026 184.517144 136.079323 195.4809 146.411862 196.478786 136.792151 206.485368 125.611502 206.485368 116.127073 195.501689"></polygon>
                        <path d="M148.092645,228.492312 L152.522238,228.492312 C156.17223,226.543315 159.858645,224.66968 163.59709,222.775255 C164.356746,222.389787 165.12334,221.999121 165.891668,221.606723 L168.892137,218.48573 L158.560465,217.487844 L149.297168,206.524088 L137.538973,206.524088 L127.293152,217.487844 L138.608215,217.508633 L148.092645,228.492312 Z" id="Fill-24" fill="#706F6F"></path>
                        <polygon id="Fill-26" fill="#706F6F" points="86.2020797 215.886202 96.4487672 204.922446 108.206095 204.922446 117.469392 215.886202 127.801931 216.884088 118.18222 226.89067 107.001572 226.89067 97.5171422 215.906991"></polygon>
                        <polygon id="Fill-28" fill="#706F6F" points="44.9560406 215.332946 55.2027281 204.369191 66.9600562 204.369191 76.2233531 215.332946 86.5558922 216.330833 76.9361813 226.337415 65.7555328 226.337415 56.2711031 215.353736"></polygon>
                        <path d="M82.3796906,236.472977 C88.9737844,239.817455 96.0257531,243.217372 103.336144,245.335281 L109.036167,239.405134 L98.7044953,238.407248 L89.4403312,227.444358 L77.6830031,227.444358 L73.556925,231.858619 C76.4871516,233.419549 79.4208469,234.971816 82.3796906,236.472977" id="Fill-30" fill="#706F6F"></path>
                        <path d="M123.09848,242.67659 C123.168722,242.667062 123.238097,242.652336 123.309206,242.643674 C128.480245,242.01653 133.440558,239.545202 138.078277,236.841727 L131.040183,228.511282 L119.282855,228.511282 L109.036167,239.475038 L120.352097,239.495827 L123.09848,242.67659 Z" id="Fill-32" fill="#706F6F"></path>
                        <path d="M189.475526,207.847587 L178.414549,207.847587 L168.167862,218.811342 L171.269791,218.81654 C177.460643,215.541359 183.712198,211.95867 189.475526,207.847587" id="Fill-34" fill="#706F6F"></path>
                        <path d="M200.494704,198.514751 C201.44861,197.535056 202.380837,196.538902 203.261032,195.503768 C205.763735,192.562082 207.752196,189.389982 209.333079,186.048102 L198.145493,186.048102 L187.898805,197.010992 L199.213868,197.031781 L200.494704,198.514751 Z" id="Fill-36" fill="#706F6F"></path>
                        <polygon id="Fill-38" fill="#706F6F" points="147.006405 174.027384 157.253093 163.063628 169.010421 163.063628 178.273718 174.027384 188.606257 175.02527 178.986546 185.031852 167.805898 185.031852 158.321468 174.048173"></polygon>
                        <path d="M8.50268672,184.534208 L8.50268672,176.741687 L29.6646633,171.831081 C29.6785383,171.825018 31.0157414,171.350329 33.7959445,171.639646 C36.0913898,171.876991 40.9285617,172.427041 43.256093,172.711162 L43.6116398,182.313218 L8.50268672,184.534208 Z M34.1575617,131.619382 C36.466882,132.382523 40.7421164,133.63681 41.8200305,133.952115 L43.0462336,167.049543 C41.3266008,166.799205 36.7747336,166.126152 34.7221008,165.719028 L34.1575617,131.619382 Z M8.50268672,142.008834 L8.50268672,138.28062 C11.0903742,136.749141 28.5087023,126.445446 30.2040539,125.599148 C31.7381086,124.83081 33.0779133,125.367867 33.1420852,125.393854 L41.6197102,128.588476 L41.7610617,132.399847 C39.8515148,131.83767 35.1175383,130.434392 33.6615305,129.888673 C31.4536711,129.0597 29.3559445,130.357299 29.2787648,130.404941 L8.50268672,142.008834 Z M88.3099523,129.047573 C88.9906945,128.939295 89.5812492,129.025917 90.0582023,129.323031 C91.0676086,129.949309 91.4058117,131.306677 91.467382,131.591663 L91.481257,131.776168 C92.188882,141.101034 95.7391477,187.786867 96.1736086,191.055118 C96.494468,193.450218 95.643757,194.091222 95.366257,194.234148 C94.9552102,194.222887 93.729007,194.191703 92.1880148,194.163984 L88.3099523,129.047573 Z M80.4289523,179.994345 L78.8281242,138.067529 L78.817718,137.8016 L77.3417648,137.857904 L77.5021945,142.049546 L60.7377258,137.520078 C60.6475383,136.065693 60.5590852,134.625168 60.4714992,133.2037 L73.9137727,136.997747 L74.3135461,135.579743 L71.019968,134.650289 C74.8919602,133.365683 83.6982492,130.449118 86.8548117,129.447767 L90.7077258,194.140596 C87.9795539,194.103349 84.8030461,194.094687 83.2082883,194.216824 C81.8918977,194.32077 81.3551086,194.031453 81.148718,193.84868 C80.9605383,193.684098 80.9449289,193.519516 80.9449289,193.513453 L80.4844523,181.458259 L80.5191398,181.456526 L80.4289523,179.994345 Z M63.0505148,175.014442 L78.827257,176.746018 L78.9547336,180.077503 C76.7121867,180.216098 74.3543039,180.354693 71.977343,180.493289 L71.3581711,180.52967 C68.6534133,180.687322 65.9564602,180.844974 63.4208039,181.002626 C63.305468,179.144583 63.1814602,177.137549 63.0505148,175.014442 L63.0505148,175.014442 Z M62.8224445,171.320877 L78.7049836,173.553994 L78.7700227,175.256984 L62.9577258,173.521944 C62.9134992,172.799516 62.8684055,172.066693 62.8224445,171.320877 L62.8224445,171.320877 Z M77.5611633,143.592285 L78.6486164,172.058031 L62.7296555,169.819717 C62.149507,160.42382 61.4731008,149.465262 60.8331164,139.072345 L77.5611633,143.592285 Z M52.2696398,115.589101 C53.1793195,115.304115 55.1833898,114.833757 56.5231945,115.693048 C57.2412258,116.153011 57.848257,117.493921 58.070257,118.223279 C58.1144836,118.945707 62.538007,190.801315 62.7721477,194.29565 C62.884882,195.98478 62.5267336,196.535697 62.3680383,196.693349 C62.2474992,196.813754 62.149507,196.804225 62.0957414,196.799028 L55.2805148,196.799028 L52.2696398,115.589101 Z M43.0765852,128.044489 L43.0592414,127.555075 L35.1869133,124.590001 L50.8188352,116.271683 L53.8036945,196.799028 L47.9848664,196.799028 C45.721507,196.799028 45.5879602,195.737041 45.5853586,195.70759 L43.0765852,128.044489 Z M33.6927492,167.003633 C35.3005148,167.404693 41.1002648,168.257921 43.1017336,168.547238 L43.200593,171.216931 C40.7655305,170.918085 36.0653742,170.392289 33.9477023,170.174001 C31.4085773,169.911536 29.755718,170.220777 29.2388742,170.436466 L29.2354055,170.423473 L8.50181953,175.229265 L8.50181953,172.271988 L29.3498742,167.237513 C29.3758898,167.231449 32.0364211,166.588713 33.6927492,167.003633 L33.6927492,167.003633 Z M97.6374211,190.860218 C97.3677258,188.843657 95.740882,168.309894 93.0560695,133.040851 L92.928593,131.396764 C92.9138508,131.304944 92.5314211,129.128131 90.843007,128.074807 C89.8613508,127.462389 88.6767727,127.35671 87.3256945,127.756904 C85.3363664,128.347667 73.7715539,132.182426 68.892757,133.803125 L68.4912492,133.936523 L60.3752414,131.646235 C60.1185539,127.46672 59.8722727,123.476041 59.6485383,119.832717 L59.5366711,118.052633 L59.513257,117.927031 C59.4404133,117.668031 58.7527336,115.37168 57.3201398,114.451754 C54.8703352,112.882162 51.3356789,114.348673 51.164843,114.421436 L33.3346008,123.905687 C32.6764055,123.716851 31.1874445,123.458717 29.5449914,124.28076 C27.6354445,125.233603 7.59040547,137.107757 7.38748359,137.228162 L7.02673359,137.442118 L7.02673359,144.520874 L30.0245461,131.675687 C30.1737023,131.588198 31.388632,130.910814 32.6729367,131.14556 L33.2409445,165.435774 C31.3175227,165.233944 29.099257,165.782262 28.9943273,165.808248 L7.02673359,171.112118 L7.02673359,175.889325 L7.02673359,177.083844 L7.02673359,186.1038 L43.6662727,183.78666 L44.1102727,195.767359 C44.1154758,195.869573 44.2663664,198.272469 47.9848664,198.272469 L61.9925461,198.265539 C62.0116242,198.268138 62.0697258,198.275934 62.1573117,198.275934 C62.4079289,198.275934 62.8978898,198.211834 63.356632,197.786519 C64.0599211,197.135121 64.3591008,195.92761 64.2428977,194.197767 C64.189132,193.391315 63.9142336,188.976188 63.5118586,182.473469 C66.0466477,182.315817 68.740132,182.158165 71.4440227,182.000513 L71.7388664,181.983188 C74.2138195,181.838529 76.6757648,181.694737 79.0111008,181.550078 L79.4689758,193.542038 C79.4689758,193.619998 79.4880539,194.321636 80.1297727,194.91673 C80.801843,195.536944 81.8676164,195.794212 83.3210227,195.685934 C86.2798664,195.458118 95.3827336,195.708456 95.4737883,195.711055 L95.578718,195.714519 L95.6845148,195.6868 C95.786843,195.659081 98.1854836,194.964372 97.6374211,190.860218 L97.6374211,190.860218 Z" id="Fill-40" fill="#706F6F"></path>
                        <path d="M204.970085,190.445905 C175.702507,207.290433 146.446202,224.153153 117.213312,241.056584 C112.948484,243.522714 108.903054,243.460346 104.659905,241.006343 C75.4807805,224.131497 46.2782414,207.295631 17.0635617,190.482286 C12.9088664,188.090651 11.0149289,184.603246 11.0279367,179.851159 C11.075632,163.021357 11.0470148,146.191554 11.0470148,129.361751 C11.0470148,121.424571 11.0504836,113.488256 11.0513508,105.551076 L210.94414,105.551076 C210.936335,130.352708 210.926796,155.15434 210.943273,179.955972 C210.946741,184.630965 209.065812,188.088918 204.970085,190.445905 M16.9334836,68.3538247 C46.248757,51.4746475 75.5605617,34.5885405 104.841148,17.6504602 C109.061749,15.2094502 113.030866,15.2692194 117.22632,17.6955037 C146.454874,34.6015338 175.710312,51.4616542 204.975288,68.3053164 C207.010577,69.477313 208.496937,70.9221692 209.477726,72.6528783 L12.4787414,72.6528783 C13.4508586,70.9386274 14.9250773,69.5102294 16.9334836,68.3538247 M221.425835,78.2018883 C221.418898,69.9138883 217.790585,63.5748849 210.606804,59.4204903 C181.11289,42.3637378 151.602499,25.3364368 122.07303,8.34118595 C114.71928,4.10883144 107.239788,4.11835987 99.8843039,8.3515806 C70.5135305,25.2567445 41.170507,42.2095505 11.8101398,59.132905 C4.29942891,63.4622763 0.524561719,69.908691 0.534100781,78.589089 C0.553178906,95.5410288 0.540171094,112.492102 0.540171094,129.444042 C0.540171094,146.395116 0.545374219,163.347056 0.537569531,180.298129 C0.534967969,188.832136 4.25346797,195.258627 11.6106867,199.506574 C41.1132727,216.539938 70.6323352,233.544718 100.16614,250.525243 C107.350788,254.656249 114.642968,254.648454 121.825882,250.515714 C151.459413,233.466758 181.086007,216.403942 210.681382,199.28742 C217.791452,195.174604 221.413695,188.85639 221.422366,180.642885 C221.459655,146.495597 221.454452,112.34831 221.425835,78.2018883" id="Fill-42" fill="#72BD53"></path>
                        <polygon id="Fill-44" fill="#FEFEFE" points="34.5380836 79.5995355 38.993693 79.5995355 47.0680758 93.340395 47.0680758 79.5995355 51.0293883 79.5995355 51.0293883 99.3060572 46.7801695 99.3060572 38.4985289 85.3235221 38.4985289 99.3060572 34.5380836 99.3060572"></polygon>
                        <path d="M70.6808977,97.5548187 C69.1442414,99.0880294 66.922507,99.8546348 64.0148273,99.8546348 C61.1080148,99.8546348 58.8862805,99.0880294 57.3496242,97.5548187 C55.2891867,95.6742535 54.258968,92.9647151 54.258968,89.4262033 C54.258968,85.8166615 55.2891867,83.1071231 57.3496242,81.297588 C58.8862805,79.7643773 61.1080148,78.9977719 64.0148273,78.9977719 C66.922507,78.9977719 69.1442414,79.7643773 70.6808977,81.297588 C72.7326633,83.1071231 73.7585461,85.8166615 73.7585461,89.4262033 C73.7585461,92.9647151 72.7326633,95.6742535 70.6808977,97.5548187" id="Fill-46" fill="#FEFEFE"></path>
                        <path d="M88.9208859,80.0272753 C90.3474094,80.4820411 91.5033703,81.3153455 92.3870344,82.5271883 C93.0963938,83.5077502 93.5802844,84.5688706 93.8378391,85.7096833 C94.0953938,86.850496 94.2246047,87.937603 94.2246047,88.9718706 C94.2246047,91.5921883 93.6808781,93.8114458 92.5942922,95.6296431 C91.1218078,98.0810478 88.847175,99.3058839 85.7721281,99.3058839 L77.0013938,99.3058839 L77.0013938,79.5993622 L85.7721281,79.5993622 C87.0330188,79.6175528 88.0823156,79.759613 88.9208859,80.0272753" id="Fill-48" fill="#FEFEFE"></path>
                        <polygon id="Fill-50" fill="#FEFEFE" points="112.454534 83.0887592 101.690135 83.0887592 101.690135 87.2734716 111.571737 87.2734716 111.571737 90.6959097 101.690135 90.6959097 101.690135 95.763301 112.951432 95.763301 112.951432 99.3061438 97.536307 99.3061438 97.536307 79.5996221 112.454534 79.5996221"></polygon>
                        <path d="M118.206415,81.6583689 C119.844532,80.0359375 121.929251,79.2251548 124.459704,79.2251548 C127.845204,79.2251548 130.321024,80.3131281 131.886298,82.4873421 C132.751751,83.7087134 133.215696,84.9344157 133.279001,86.1635829 L129.028915,86.1635829 C128.758352,85.2194023 128.411477,84.5056365 127.987423,84.0248839 C127.230368,83.1690579 126.108227,82.7411448 124.621868,82.7411448 C123.106891,82.7411448 121.912774,83.3449007 121.038649,84.5532786 C120.164524,85.7607903 119.727462,87.4698438 119.727462,89.6804391 C119.727462,91.8910344 120.188805,93.5463823 121.110626,94.6473488 C122.033313,95.7474492 123.205751,96.2974993 124.627071,96.2974993 C126.084813,96.2974993 127.196548,95.825409 127.961407,94.8812284 C128.384595,94.3727569 128.735805,93.6113488 129.01504,92.5944057 L133.237376,92.5944057 C132.873157,94.7426331 131.942665,96.4898003 130.445899,97.8350411 C128.948266,99.1811482 127.030048,99.8542017 124.691243,99.8542017 C121.797438,99.8542017 119.521071,98.9455361 117.864743,97.1273388 C116.208415,95.299613 115.380251,92.7953689 115.380251,89.6128739 C115.380251,86.1731114 116.322016,83.5216097 118.206415,81.6583689" id="Fill-52" fill="#FEFEFE"></path>
                        <path d="M145.496459,94.4285415 C144.54949,95.3718559 143.182802,95.8439462 141.394662,95.8439462 C139.604787,95.8439462 138.237232,95.3718559 137.291998,94.4285415 C136.023302,93.2712706 135.389388,91.6037957 135.389388,89.4261167 C135.389388,87.2051268 136.023302,85.5376518 137.291998,84.423692 C138.237232,83.4803776 139.604787,83.0082873 141.394662,83.0082873 C143.182802,83.0082873 144.54949,83.4803776 145.496459,84.423692 C146.758216,85.5376518 147.390396,87.2051268 147.390396,89.4261167 C147.390396,91.6037957 146.758216,93.2712706 145.496459,94.4285415" id="Fill-54" fill="#FEFEFE"></path>
                        <polygon id="Fill-56" fill="#FEFEFE" points="150.037833 79.5995355 154.493442 79.5995355 162.568692 93.340395 162.568692 79.5995355 166.530005 79.5995355 166.530005 99.3060572 162.279919 99.3060572 153.999145 85.3235221 153.999145 99.3060572 150.037833 99.3060572"></polygon>
                        <polygon id="Fill-58" fill="#FEFEFE" points="170.518287 79.6263883 185.021998 79.6263883 185.021998 83.0886726 174.740623 83.0886726 174.740623 87.6207395 183.752435 87.6207395 183.752435 91.0440438 174.740623 91.0440438 174.740623 99.3060572 170.518287 99.3060572"></polygon>
                        <path d="M95.1960281,39.8514378 C95.4934734,39.1463341 96.1950281,38.3987856 97.3006922,37.6105247 C98.2598016,36.9244779 98.8807078,36.4333308 99.1634109,36.1362171 C99.5970047,35.6736552 99.8138016,35.1686485 99.8138016,34.6185983 C99.8138016,34.1707622 99.6897938,33.7982873 99.4409109,33.5020398 C99.1928953,33.2049261 98.8364813,33.0568023 98.3742703,33.0568023 C97.7412234,33.0568023 97.3093641,33.2924144 97.0812938,33.7645047 C96.9494813,34.0373642 96.8714344,34.4696084 96.8471531,35.0638358 L94.8231375,35.0638358 C94.857825,34.1629662 95.0208563,33.436207 95.3130984,32.8809595 C95.8689656,31.8259027 96.8566922,31.297508 98.2754109,31.297508 C99.3975516,31.297508 100.289888,31.6076151 100.952419,32.2278291 C101.615817,32.8489094 101.947083,33.6692204 101.947083,34.6913609 C101.947083,35.4752906 101.713809,36.1699997 101.244661,36.7789528 C100.936809,37.1826117 100.432106,37.6330465 99.7296844,38.129391 L98.8945828,38.7201535 C98.3725359,39.0900298 98.0152547,39.357692 97.8236063,39.5231401 C97.6302234,39.6885883 97.4680594,39.8808893 97.3371141,40.0991769 L101.961825,40.0991769 L101.961825,41.9312338 L94.7060672,41.9312338 C94.7260125,41.1724244 94.8890438,40.4794478 95.1960281,39.8514378" id="Fill-60" fill="#706F6F"></path>
                        <path d="M105.454509,39.5339679 C105.653963,40.1784361 106.063275,40.5006702 106.682447,40.5006702 C107.300752,40.5006702 107.705728,40.1784361 107.899111,39.5339679 C108.090759,38.8894997 108.187017,37.9583124 108.187017,36.7421385 C108.187017,35.4679278 108.090759,34.5237472 107.899111,33.9104629 C107.705728,33.2971786 107.300752,32.9905365 106.682447,32.9905365 C106.063275,32.9905365 105.653963,33.2971786 105.454509,33.9104629 C105.255056,34.5237472 105.15533,35.4679278 105.15533,36.7421385 C105.15533,37.9583124 105.255056,38.8894997 105.454509,39.5339679 M109.520752,32.6986201 C110.063611,33.647998 110.335041,34.9949712 110.335041,36.7421385 C110.335041,38.4893057 110.063611,39.8345465 109.520752,40.7787271 C108.977025,41.7220415 108.031791,42.1941318 106.682447,42.1941318 C105.332236,42.1941318 104.387002,41.7220415 103.843275,40.7787271 C103.300416,39.8345465 103.028986,38.4893057 103.028986,36.7421385 C103.028986,34.9949712 103.300416,33.647998 103.843275,32.6986201 C104.387002,31.7501084 105.332236,31.2754194 106.682447,31.2754194 C108.031791,31.2754194 108.977025,31.7501084 109.520752,32.6986201" id="Fill-62" fill="#706F6F"></path>
                        <path d="M111.920953,34.6330642 L111.920953,33.2167933 C112.576547,33.188208 113.036156,33.1440308 113.298914,33.085994 C113.716031,32.9933084 114.056836,32.8088033 114.318727,32.5307465 C114.498234,32.3410441 114.63525,32.0881077 114.726305,31.7719371 C114.78007,31.5822348 114.806953,31.4410408 114.806953,31.3483552 L116.545664,31.3483552 L116.545664,41.9318401 L114.412383,41.9318401 L114.412383,34.6330642 L111.920953,34.6330642 Z" id="Fill-64" fill="#706F6F"></path>
                        <path d="M122.223314,39.9754806 C122.530298,40.3358284 122.919666,40.5160023 123.392283,40.5160023 C123.854494,40.5160023 124.218712,40.3410258 124.484939,39.9936712 C124.750298,39.6463167 124.882978,39.1941495 124.882978,38.6397682 C124.882978,38.0221528 124.73122,37.5483301 124.430306,37.2200324 C124.128525,36.8917348 123.757369,36.7280191 123.319439,36.7280191 C122.963025,36.7280191 122.649103,36.8345642 122.376806,37.0485207 C121.967494,37.3655575 121.762837,37.8757615 121.762837,38.5817314 C121.762837,39.1508385 121.91633,39.6151328 122.223314,39.9754806 L122.223314,39.9754806 Z M124.693064,34.0124171 C124.693064,33.8417716 124.627158,33.6546679 124.495345,33.4502398 C124.271611,33.1193435 123.933408,32.9538953 123.479869,32.9538953 C122.802595,32.9538953 122.320439,33.3341662 122.0334,34.0929756 C121.878173,34.5113602 121.770642,35.1289756 121.711673,35.946688 C121.970095,35.6400458 122.269275,35.4165609 122.610947,35.2753669 C122.951752,35.1341729 123.341119,35.064009 123.779916,35.064009 C124.719947,35.064009 125.490009,35.381912 126.092705,36.0194505 C126.693666,36.656989 126.99458,37.4721027 126.99458,38.4647916 C126.99458,39.4522833 126.700603,40.3228351 126.110048,41.0773134 C125.520361,41.8317916 124.605478,42.2085977 123.362798,42.2085977 C122.028197,42.2085977 121.044806,41.6516177 120.410892,40.5376579 C119.919197,39.6662398 119.672916,38.5427515 119.672916,37.1654605 C119.672916,36.3581428 119.707603,35.7015475 119.775244,35.1948084 C119.897517,34.294805 120.133392,33.5455241 120.484603,32.9469656 C120.786384,32.4358953 121.182689,32.0244405 121.670916,31.7134672 C122.161744,31.402494 122.747095,31.2465742 123.428705,31.2465742 C124.412962,31.2465742 125.1969,31.4986445 125.781384,32.0019187 C126.365869,32.505193 126.6954,33.1756478 126.768244,34.0124171 L124.693064,34.0124171 Z" id="Fill-66" fill="#706F6F"></path>
                        <path d="M65.026575,63.2482331 L68.9532,63.2482331 C69.8004422,63.2482331 70.5375516,63.2109856 71.1653953,63.1347582 C71.7932391,63.059397 72.3118172,62.9043435 72.7202625,62.6704639 C73.129575,62.4357181 73.434825,62.1030893 73.6394812,61.6725776 C73.8432703,61.2420659 73.9455984,60.6720926 73.9455984,59.9617916 C73.9455984,59.2809421 73.8319969,58.7334906 73.6056609,58.3177047 C73.3784578,57.9019187 73.0532625,57.5814171 72.6292078,57.3544672 C72.2060203,57.1275174 71.6987156,56.9724639 71.1090281,56.8901729 C70.5193406,56.8070157 69.8602781,56.7654371 69.1353094,56.7654371 L65.026575,56.7654371 L65.026575,63.2482331 Z M65.026575,55.450514 L68.9306531,55.450514 C69.7319344,55.450514 70.4057391,55.3820826 70.9503328,55.246086 C71.4940594,55.1100893 71.9337234,54.9099923 72.2658562,54.6449288 C72.5988562,54.3807314 72.8373328,54.0558987 72.9812859,53.6704304 C73.1243719,53.2849622 73.1972156,52.8431896 73.1972156,52.3442465 C73.1972156,51.8305776 73.1130984,51.3957348 72.9474656,51.0414505 C72.7809656,50.6854338 72.5164734,50.3987147 72.1531219,50.1795609 C71.7897703,49.960407 71.3171531,49.8018886 70.7344031,49.7040057 C70.1525203,49.6052565 69.4370906,49.5558819 68.5898484,49.5558819 L65.026575,49.5558819 L65.026575,55.450514 Z M63.4838484,64.5631562 L63.4838484,48.2418251 L69.3841922,48.2418251 C70.3372312,48.2418251 71.1541219,48.339708 71.8357312,48.5363401 C72.5164734,48.7329722 73.0723406,49.0118953 73.5033328,49.3748418 C73.934325,49.7377883 74.2482469,50.1726311 74.4450984,50.678504 C74.6410828,51.1843769 74.7399422,51.7404906 74.7399422,52.3442465 C74.7399422,52.9194171 74.6644969,53.4140291 74.5136062,53.8289488 C74.3618484,54.2447348 74.1649969,54.5920893 73.9230516,54.8718786 C73.6811062,55.1516679 73.4053406,55.3708217 73.0948875,55.5293401 C72.7844344,55.6878585 72.463575,55.7978686 72.130575,55.8576378 L72.130575,55.9035475 C73.2648562,56.0698619 74.1077625,56.5150993 74.6610281,57.2409923 C75.2125594,57.9668853 75.4891922,58.8729522 75.4891922,59.9617916 C75.4891922,60.8072231 75.3565125,61.5253201 75.0920203,62.1152164 C74.8275281,62.7042465 74.4607078,63.1798017 73.9915594,63.5427482 C73.5224109,63.9056946 72.9578719,64.1664271 72.3005437,64.3249455 C71.6423484,64.4834639 70.9277859,64.5631562 70.1559891,64.5631562 L63.4838484,64.5631562 Z" id="Fill-68" fill="#706F6F"></path>
                        <path d="M88.7352211,55.8352893 C89.3092992,55.8352893 89.8434867,55.7746538 90.3343148,55.6542492 C90.8260102,55.5329783 91.2526664,55.3406773 91.616018,55.0756137 C91.9793695,54.8122826 92.2672758,54.4753227 92.4797367,54.0673328 C92.6913305,53.6593428 92.7971273,53.1681957 92.7971273,52.5938913 C92.7971273,51.9892692 92.6878617,51.4911923 92.4684633,51.0979281 C92.2481977,50.7046639 91.9533539,50.3945569 91.5830648,50.1684732 C91.2110414,49.9415234 90.7887211,49.783005 90.3126352,49.6920518 C89.8348148,49.6019649 89.3396508,49.5560552 88.8254086,49.5560552 L83.9231977,49.5560552 L83.9231977,55.8352893 L88.7352211,55.8352893 Z M83.9231977,57.1502124 L83.9231977,64.5633294 L82.3804711,64.5399415 L82.3804711,48.2411321 L88.7794477,48.2411321 C90.5805961,48.2411321 91.9576898,48.578092 92.9107289,49.2502793 C93.8629008,49.9224666 94.3398539,51.0147709 94.3398539,52.5254599 C94.3398539,53.5536639 94.1317289,54.3696438 93.7154789,54.9742659 C93.2992289,55.578888 92.6219555,56.0925569 91.685393,56.5152726 C92.1692836,56.6824532 92.5473773,56.9241288 92.818807,57.2411656 C93.0911039,57.5582023 93.2957602,57.9211488 93.4327758,58.3291388 C93.5689242,58.7371288 93.655643,59.1676405 93.6937992,59.6215401 C93.7302211,60.0745736 93.7571039,60.5128813 93.7718461,60.9364632 C93.7883227,61.555811 93.8143383,62.0694799 93.8524945,62.4774699 C93.8889164,62.8854599 93.9348773,63.2180886 93.988643,63.4753562 C94.0406742,63.7326237 94.1057133,63.9318545 94.1811586,64.0756472 C94.2574711,64.2194398 94.3467914,64.3285836 94.4534555,64.4039448 L94.4534555,64.5399415 L92.7511664,64.5633294 C92.5855336,64.2913361 92.4684633,63.9136639 92.3990883,63.4294465 C92.3314477,62.9460953 92.2785492,62.4393562 92.240393,61.9109615 C92.2022367,61.3817007 92.1727523,60.8680318 92.1510727,60.3690886 C92.1276586,59.8701455 92.0851664,59.4630217 92.0253305,59.1451187 C91.9342758,58.706811 91.7877211,58.3559916 91.5830648,58.0909281 C91.3784086,57.8267308 91.1321273,57.6266338 90.8459555,57.4897709 C90.557182,57.3537742 90.2363227,57.2636873 89.8799086,57.2186438 C89.5243617,57.1727341 89.1575414,57.1502124 88.7794477,57.1502124 L83.9231977,57.1502124 Z" id="Fill-70" fill="#706F6F"></path>
                        <path d="M103.863394,58.1252304 L110.263238,58.1252304 L107.063316,49.5565749 L103.863394,58.1252304 Z M99.8240344,64.5629829 L106.247292,48.2416518 L107.993808,48.2416518 L114.257503,64.5629829 L112.668816,64.5629829 L110.785284,59.4401535 L103.341347,59.4401535 L101.413589,64.5629829 L99.8240344,64.5629829 Z" id="Fill-72" fill="#706F6F"></path>
                        <polygon id="Fill-74" fill="#706F6F" points="119.106035 64.5629829 119.106035 63.2705816 129.568652 49.5565749 119.991434 49.5565749 119.991434 48.2416518 131.47473 48.2416518 131.47473 49.533187 121.01298 63.2480599 131.542371 63.2480599 131.542371 64.5629829"></polygon>
                        <mask id="mask-2" fill="white">
                            <use xlink:href="#path-1"></use>
                        </mask>
                        <g id="Clip-77"></g>
                        <polygon id="Fill-76" fill="#706F6F" mask="url(#mask-2)" points="138.434344 64.5628963 139.977937 64.5628963 139.977937 48.2415652 138.434344 48.2415652"></polygon>
                        <polygon id="Fill-78" fill="#706F6F" mask="url(#mask-2)" points="147.980951 64.5629829 147.980951 48.2416518 149.523677 48.2416518 149.523677 63.2480599 158.284005 63.2480599 158.284005 64.5629829"></polygon>
                    </g>
                </g>
            </g>
        </g>
    </g>
</svg>