<?xml version="1.0" encoding="UTF-8" standalone="no"?>
<svg width="23px" height="15px" viewBox="0 0 23 15" version="1.1" xmlns="http://www.w3.org/2000/svg" xmlns:xlink="http://www.w3.org/1999/xlink">
    <!-- Generator: Sketch 3.6.1 (26313) - http://www.bohemiancoding.com/sketch -->
    <title>Fill 1</title>
    <desc>Created with Sketch.</desc>
    <defs></defs>
    <g id="Page-1" stroke="none" stroke-width="1" fill="none" fill-rule="evenodd">
        <g id="Desktop-HD" transform="translate(-578.000000, -759.000000)" fill="#FEFEFE">
            <g id="Home" transform="translate(40.000000, 40.000000)">
                <g id="cta" transform="translate(502.000000, 698.000000)">
                    <path d="M52.327003,32.9762727 L50.6974879,32.9762727 L50.6974879,23.3905909 L52.327003,23.3905909 C53.2309727,23.3905909 53.9565182,24.1112727 53.9565182,24.9846818 L53.9565182,31.3821818 C53.9565182,32.2555909 53.2309727,32.9762727 52.327003,32.9762727 L52.327003,32.9762727 Z M45.6423667,29.4717273 C45.5643061,29.4171818 45.4862455,29.3844545 45.3851848,29.3844545 C45.2959727,29.3844545 45.2067606,29.4171818 45.1398515,29.4717273 L45.1287,29.4717273 L44.1689727,30.2251364 L44.5488212,29.1117273 C44.5599727,29.0680909 44.5711242,29.0244545 44.5711242,28.9808182 C44.5711242,28.8601364 44.5042152,28.7510455 44.4143061,28.6746818 L43.2873061,27.7794545 L44.5711242,27.7794545 C44.7495485,27.7794545 44.8945182,27.6703636 44.9502758,27.5067273 L44.9614273,27.5067273 L45.3851848,26.2515 L45.8207909,27.5067273 C45.8765485,27.6703636 46.0215182,27.7794545 46.1999424,27.7794545 L47.4837606,27.7794545 L46.3567606,28.6746818 C46.2668515,28.7510455 46.1999424,28.8601364 46.1999424,28.9808182 C46.1999424,29.0244545 46.2110939,29.0680909 46.233397,29.1117273 L46.2222455,29.1117273 L46.6020939,30.2251364 L45.6423667,29.4717273 Z M47.8406091,31.3821818 C47.8406091,31.3276364 47.8183061,31.2949091 47.8071545,31.2512727 L47.8183061,31.2512727 L47.0927606,29.1226364 L48.9118515,27.6921818 L48.9007,27.6921818 C49.0010636,27.6158182 49.0568212,27.5067273 49.0568212,27.3867273 C49.0568212,27.1685455 48.878397,26.9824091 48.6553667,26.9824091 L46.5017303,26.9824091 L45.7761848,24.8646818 L45.7650333,24.8646818 C45.7204273,24.7010455 45.5643061,24.5919545 45.3851848,24.5919545 C45.2067606,24.5919545 45.0617909,24.7010455 45.0060333,24.8646818 L44.9948818,24.8646818 L44.2804879,26.9824091 L42.1268515,26.9824091 C41.8926697,26.9824091 41.7135485,27.1685455 41.7135485,27.3867273 C41.7135485,27.5067273 41.7811545,27.6158182 41.8703667,27.6921818 L43.6894576,29.1226364 L42.9639121,31.2512727 C42.9527606,31.2949091 42.9416091,31.3385455 42.9416091,31.3821818 C42.9416091,31.6003636 43.1200333,31.7755909 43.3430636,31.7755909 C43.4434273,31.7755909 43.5326394,31.7428636 43.6002455,31.6883182 L45.3851848,30.2905909 L47.1708212,31.6883182 L47.1819727,31.6883182 C47.2488818,31.7428636 47.3276394,31.7755909 47.428003,31.7755909 C47.6510333,31.7755909 47.8406091,31.6003636 47.8406091,31.3821818 L47.8406091,31.3821818 Z M42.5283061,32.9762727 C41.6243364,32.9762727 40.8994879,32.2555909 40.8994879,31.3821818 L40.8994879,24.9846818 C40.8994879,24.1112727 41.6243364,23.3905909 42.5283061,23.3905909 L49.8715788,23.3905909 L49.8715788,32.9762727 L42.5283061,32.9762727 Z M42.5283061,22.5935455 C41.1782758,22.5935455 40.0847303,23.664 40.0847303,24.9846818 L40.0847303,31.3821818 C40.0847303,32.7035455 41.1782758,33.7733182 42.5283061,33.7733182 L52.327003,33.7733182 C53.6770333,33.7733182 54.7712758,32.7035455 54.7712758,31.3821818 L54.7712758,24.9846818 C54.7712758,23.664 53.6770333,22.5935455 52.327003,22.5935455 L42.5283061,22.5935455 Z M56.4112455,28.1837727 C56.4112455,29.2862727 57.3152152,30.1815 58.4429121,30.1815 C58.6770939,30.1815 58.8555182,30.3560455 58.8555182,30.5742273 L58.8555182,34.974 C58.8555182,35.1921818 58.6770939,35.3674091 58.4429121,35.3674091 L36.4130939,35.3674091 C36.1782152,35.3674091 35.9997909,35.1921818 35.9997909,34.974 L35.9997909,30.5742273 C35.9997909,30.3560455 36.1782152,30.1815 36.4130939,30.1815 C37.5400939,30.1815 38.4440636,29.2862727 38.4440636,28.1837727 C38.4440636,27.0805909 37.5400939,26.1853636 36.4130939,26.1853636 C36.1782152,26.1853636 35.9997909,26.0108182 35.9997909,25.7926364 L35.9997909,21.3928636 C35.9997909,21.1746818 36.1782152,21.0001364 36.4130939,21.0001364 L58.4429121,21.0001364 C58.6770939,21.0001364 58.8555182,21.1746818 58.8555182,21.3928636 L58.8555182,25.7926364 C58.8555182,26.0108182 58.6770939,26.1853636 58.4429121,26.1853636 C57.3152152,26.1853636 56.4112455,27.0805909 56.4112455,28.1837727 L56.4112455,28.1837727 Z" id="Fill-1"></path>
                </g>
            </g>
        </g>
    </g>
</svg>