<?xml version="1.0" encoding="UTF-8" standalone="no"?>
<svg width="16px" height="14px" viewBox="0 0 16 14" version="1.1" xmlns="http://www.w3.org/2000/svg" xmlns:xlink="http://www.w3.org/1999/xlink">
    <!-- Generator: Sketch 3.6.1 (26313) - http://www.bohemiancoding.com/sketch -->
    <title>Fill 1</title>
    <desc>Created with Sketch.</desc>
    <defs></defs>
    <g id="Page-1" stroke="none" stroke-width="1" fill="none" fill-rule="evenodd">
        <g id="Desktop-HD" transform="translate(-101.000000, -60.000000)" fill="#FFFFFF">
            <g id="Home" transform="translate(40.000000, 40.000000)">
                <g id="social" transform="translate(0.000000, 10.000000)">
                    <g id="twitter" transform="translate(52.000000, 0.000000)">
                        <path d="M23.3672,13.39612 L23.3672,13.84692 C23.3672,18.39972 20.0698667,23.64972 14.0392,23.64972 C12.1872,23.64972 10.4458667,23.22412 9.00053333,22.24692 C9.25786667,22.28892 9.5152,22.30432 9.78186667,22.30432 C11.3125333,22.30432 12.7418667,21.60712 13.8512,20.67192 C12.4298667,20.65652 11.2032,19.63872 10.7965333,18.27652 C11.0005333,18.31852 11.2032,18.34232 11.4058667,18.34232 C11.7032,18.34232 12.0005333,18.30172 12.2818667,18.21912 C10.7818667,17.90832 9.64853333,16.51392 9.64853333,14.83952 L9.64853333,14.79892 C10.0938667,15.05372 10.5938667,15.20912 11.1325333,15.22592 C10.2418667,14.60152 9.66453333,13.55152 9.66453333,12.37132 C9.66453333,11.73152 9.83653333,11.20652 10.1098667,10.69692 C11.7418667,12.78152 14.1485333,14.07652 16.8672,14.23332 C16.8125333,13.98692 16.7965333,13.70832 16.7965333,13.43672 C16.7965333,11.53412 18.2578667,9.99972 20.0698667,9.99972 C21.0152,9.99972 21.8672,10.42672 22.4845333,11.08332 C23.2192,10.92652 23.9298667,10.63952 24.5552,10.24612 C24.3125333,11.04972 23.7965333,11.73152 23.1098667,12.15712 C23.7818667,12.07592 24.4058667,11.88692 25.0005333,11.60832 C24.5552,12.31392 24.0005333,12.91172 23.3672,13.39612" id="Fill-1"></path>
                    </g>
                </g>
            </g>
        </g>
    </g>
</svg>